<svg width="41" height="55" viewBox="0 0 41 55" fill="none" xmlns="http://www.w3.org/2000/svg">
<mask id="path-1-inside-1_101_407" fill="white">
<path d="M37.7368 11.995L14.113 1.17693C14.113 1.17693 10.6737 -1.8809 7.531 1.86063C6.23401 3.40477 5.9523 5.13074 5.9523 5.13074L0.0375442 41.8412C-0.434686 45.24 3.70263 46.3387 3.70263 46.3387L35.2762 54.2428L35.1522 52.6878C35.8128 51.5005 37.2868 49.5124 39.8567 49.2689C39.9141 49.2632 39.956 49.225 40.0057 49.1994L40.9647 49.5139L37.7368 11.995ZM15.6129 17.7837L16.7237 9.4412L34.4175 17.1553L34.7533 24.7185L15.6129 17.7837ZM36.1513 50.0144C35.8273 50.3055 35.5335 50.6072 35.2853 50.9129L14.713 45.5399L34.7353 51.6741C34.6538 51.8003 34.5702 51.926 34.5014 52.0444L7.99728 45.3143L34.0795 52.8483L34.0536 52.9025L4.57573 45.2992C4.56025 45.2972 3.17175 45.0015 2.2098 44.1935C1.25934 43.3952 1.07712 42.4096 1.65015 41.1793C3.12184 38.0176 8.29345 39.8688 8.37112 39.8973L38.1081 48.7809C37.7105 48.9366 37.3567 49.1377 37.0214 49.3532L17.7015 44.2413L36.1513 50.0144Z"/>
</mask>
<path d="M37.7368 11.995L14.113 1.17693C14.113 1.17693 10.6737 -1.8809 7.531 1.86063C6.23401 3.40477 5.9523 5.13074 5.9523 5.13074L0.0375442 41.8412C-0.434686 45.24 3.70263 46.3387 3.70263 46.3387L35.2762 54.2428L35.1522 52.6878C35.8128 51.5005 37.2868 49.5124 39.8567 49.2689C39.9141 49.2632 39.956 49.225 40.0057 49.1994L40.9647 49.5139L37.7368 11.995ZM15.6129 17.7837L16.7237 9.4412L34.4175 17.1553L34.7533 24.7185L15.6129 17.7837ZM36.1513 50.0144C35.8273 50.3055 35.5335 50.6072 35.2853 50.9129L14.713 45.5399L34.7353 51.6741C34.6538 51.8003 34.5702 51.926 34.5014 52.0444L7.99728 45.3143L34.0795 52.8483L34.0536 52.9025L4.57573 45.2992C4.56025 45.2972 3.17175 45.0015 2.2098 44.1935C1.25934 43.3952 1.07712 42.4096 1.65015 41.1793C3.12184 38.0176 8.29345 39.8688 8.37112 39.8973L38.1081 48.7809C37.7105 48.9366 37.3567 49.1377 37.0214 49.3532L17.7015 44.2413L36.1513 50.0144Z" fill="#9DA2C8"/>
<path d="M37.7368 11.995L38.7331 11.9093L38.6832 11.3285L38.1532 11.0858L37.7368 11.995ZM14.113 1.17693L13.4486 1.92428L13.5605 2.02378L13.6967 2.08614L14.113 1.17693ZM5.9523 5.13074L4.96536 4.96965L4.96503 4.97167L5.9523 5.13074ZM0.0375442 41.8412L-0.949724 41.6822L-0.951449 41.6929L-0.952942 41.7036L0.0375442 41.8412ZM3.70263 46.3387L3.44597 47.3052L3.45286 47.307L3.45978 47.3088L3.70263 46.3387ZM35.2762 54.2428L35.0333 55.2128L36.3836 55.5509L36.273 54.1633L35.2762 54.2428ZM35.1522 52.6878L34.2784 52.2016L34.1313 52.4659L34.1554 52.7673L35.1522 52.6878ZM39.8567 49.2689L39.9511 50.2644L39.9548 50.2641L39.8567 49.2689ZM40.0057 49.1994L40.3174 48.2492L39.9195 48.1187L39.5474 48.3106L40.0057 49.1994ZM40.9647 49.5139L40.653 50.4641L42.0907 50.9356L41.961 49.4282L40.9647 49.5139ZM16.7237 9.4412L17.1234 8.52453L15.9075 7.99446L15.7325 9.30921L16.7237 9.4412ZM34.4175 17.1553L35.4165 17.1109L35.3888 16.4879L34.8171 16.2386L34.4175 17.1553ZM34.7533 24.7185L34.4127 25.6587L35.8187 26.1681L35.7523 24.6741L34.7533 24.7185ZM35.2853 50.9129L35.0326 51.8804L35.6557 52.0432L36.0616 51.5432L35.2853 50.9129ZM14.713 45.5399L14.9657 44.5724L14.4201 46.4961L14.713 45.5399ZM34.7353 51.6741L35.5753 52.2166L36.2931 51.1054L35.0282 50.7179L34.7353 51.6741ZM34.5014 52.0444L34.2552 53.0137L34.9865 53.1994L35.3658 52.5471L34.5014 52.0444ZM7.99728 45.3143L8.24339 44.3451L7.71977 46.2751L7.99728 45.3143ZM34.0795 52.8483L34.9817 53.2798L35.4909 52.2151L34.3571 51.8876L34.0795 52.8483ZM34.0536 52.9025L33.8039 53.8708L34.6007 54.0763L34.9558 53.3339L34.0536 52.9025ZM4.57573 45.2992L4.82548 44.3309L4.76482 44.3153L4.70267 44.3073L4.57573 45.2992ZM1.65015 41.1793L2.55665 41.6015L2.55675 41.6013L1.65015 41.1793ZM8.37112 39.8973L8.02654 40.836L8.05542 40.8466L8.08488 40.8554L8.37112 39.8973ZM38.1081 48.7809L38.4727 49.712L41.176 48.6537L38.3944 47.8227L38.1081 48.7809ZM37.0214 49.3532L36.7656 50.3199L37.1915 50.4326L37.5621 50.1944L37.0214 49.3532ZM17.7015 44.2413L17.9573 43.2745L17.4029 45.1956L17.7015 44.2413ZM38.1532 11.0858L14.5294 0.267731L13.6967 2.08614L37.3205 12.9042L38.1532 11.0858ZM14.113 1.17693C14.7775 0.429591 14.7771 0.429234 14.7767 0.428866C14.7765 0.428727 14.7761 0.428347 14.7758 0.42807C14.7751 0.427516 14.7745 0.426914 14.7737 0.426265C14.7723 0.424968 14.7706 0.423484 14.7687 0.421817C14.7648 0.418484 14.7602 0.414421 14.7546 0.409665C14.7436 0.400156 14.729 0.387868 14.7112 0.373117C14.6756 0.343635 14.6266 0.304185 14.565 0.257322C14.4423 0.163818 14.2681 0.0395117 14.0499 -0.0944924C13.6177 -0.359963 12.9902 -0.677515 12.231 -0.857358C11.4657 -1.03866 10.5544 -1.08224 9.58629 -0.778917C8.61473 -0.474527 7.65557 0.157515 6.76527 1.21746L8.29673 2.5038C8.97776 1.69298 9.62703 1.30418 10.1842 1.12961C10.7448 0.953969 11.2826 0.973314 11.77 1.08878C12.2635 1.2057 12.6923 1.41876 13.0032 1.60971C13.1565 1.70392 13.2756 1.78927 13.3532 1.84838C13.3919 1.87782 13.4198 1.90041 13.4361 1.9139C13.4442 1.92063 13.4494 1.92505 13.4515 1.92689C13.4526 1.9278 13.4529 1.92807 13.4524 1.92765C13.4522 1.92743 13.4517 1.92705 13.4511 1.92649C13.4508 1.92621 13.4504 1.92589 13.45 1.92552C13.4498 1.92533 13.4494 1.92502 13.4493 1.92493C13.449 1.92461 13.4486 1.92428 14.113 1.17693ZM6.76527 1.21746C6.02385 2.10017 5.57851 3.02658 5.31815 3.72577C5.18727 4.07724 5.10102 4.37697 5.04668 4.59346C5.01946 4.70187 5.00011 4.78995 4.9871 4.85381C4.98058 4.88575 4.97564 4.91169 4.97209 4.93115C4.97031 4.94088 4.96887 4.94899 4.96776 4.95542C4.96721 4.95864 4.96673 4.96144 4.96633 4.96382C4.96613 4.965 4.96595 4.96608 4.96579 4.96706C4.96571 4.96754 4.96563 4.968 4.96556 4.96844C4.96553 4.96865 4.96548 4.96896 4.96546 4.96907C4.96541 4.96936 4.96536 4.96965 5.9523 5.13074C6.93924 5.29183 6.9392 5.29211 6.93915 5.29238C6.93914 5.29246 6.9391 5.29273 6.93907 5.29289C6.93902 5.29322 6.93897 5.29352 6.93892 5.2938C6.93883 5.29435 6.93875 5.2948 6.93869 5.29515C6.93857 5.29586 6.93852 5.29616 6.93854 5.29606C6.93857 5.29587 6.93888 5.29411 6.93948 5.29082C6.94068 5.28423 6.94306 5.27158 6.94679 5.25332C6.95424 5.21676 6.96703 5.15792 6.98649 5.08041C7.0255 4.92501 7.09074 4.69675 7.19242 4.4237C7.39716 3.87387 7.74116 3.16523 8.29673 2.5038L6.76527 1.21746ZM4.96503 4.97167L-0.949724 41.6822L1.02481 42.0003L6.93957 5.28981L4.96503 4.97167ZM-0.952942 41.7036C-1.25982 43.9123 -0.0298931 45.3594 1.11018 46.1771C1.67936 46.5853 2.25607 46.8635 2.68398 47.0391C2.89987 47.1277 3.08291 47.1922 3.21505 47.2354C3.28125 47.257 3.33502 47.2734 3.37416 47.2849C3.39374 47.2907 3.4097 47.2952 3.42175 47.2986C3.42777 47.3003 3.43283 47.3017 3.43687 47.3028C3.4389 47.3033 3.44067 47.3038 3.44219 47.3042C3.44294 47.3044 3.44364 47.3046 3.44427 47.3048C3.44458 47.3048 3.44501 47.3049 3.44517 47.305C3.44557 47.3051 3.44597 47.3052 3.70263 46.3387C3.95929 45.3722 3.95964 45.3723 3.95999 45.3724C3.96009 45.3724 3.96042 45.3725 3.9606 45.3726C3.96098 45.3727 3.9613 45.3727 3.96156 45.3728C3.96207 45.3729 3.96235 45.373 3.96238 45.373C3.96245 45.373 3.96158 45.3728 3.95979 45.3723C3.95622 45.3713 3.949 45.3693 3.93839 45.3662C3.91716 45.3599 3.88251 45.3494 3.83649 45.3344C3.74421 45.3042 3.60772 45.2563 3.44312 45.1888C3.11004 45.0521 2.68194 44.8432 2.27582 44.5519C1.46529 43.9706 0.862678 43.1689 1.02803 41.9789L-0.952942 41.7036ZM3.45978 47.3088L35.0333 55.2128L35.519 53.2727L3.94547 45.3686L3.45978 47.3088ZM36.273 54.1633L36.149 52.6084L34.1554 52.7673L34.2793 54.3222L36.273 54.1633ZM36.0261 53.174C36.6425 52.066 37.8905 50.4597 39.9511 50.2644L39.7624 48.2734C36.683 48.5651 34.9831 50.9349 34.2784 52.2016L36.0261 53.174ZM39.9548 50.2641C40.1837 50.2415 40.35 50.1552 40.4257 50.1125C40.4452 50.1014 40.4616 50.0916 40.4724 50.085C40.4779 50.0816 40.4828 50.0786 40.4863 50.0765C40.4906 50.0738 40.4917 50.0731 40.494 50.0717C40.5033 50.066 40.4878 50.0759 40.464 50.0882L39.5474 48.3106C39.4988 48.3356 39.4595 48.36 39.4451 48.3688C39.4214 48.3834 39.433 48.3762 39.4425 48.3708C39.4705 48.355 39.5872 48.2906 39.7586 48.2737L39.9548 50.2641ZM39.6941 50.1496L40.653 50.4641L41.2763 48.5637L40.3174 48.2492L39.6941 50.1496ZM41.961 49.4282L38.7331 11.9093L36.7405 12.0808L39.9683 49.5996L41.961 49.4282ZM16.6041 17.9157L17.715 9.57319L15.7325 9.30921L14.6216 17.6517L16.6041 17.9157ZM16.3241 10.3579L34.0178 18.072L34.8171 16.2386L17.1234 8.52453L16.3241 10.3579ZM33.4184 17.1997L33.7543 24.7628L35.7523 24.6741L35.4165 17.1109L33.4184 17.1997ZM35.094 23.7783L15.9535 16.8435L15.2723 18.7239L34.4127 25.6587L35.094 23.7783ZM35.4831 49.2705C35.1283 49.5891 34.7964 49.9284 34.5089 50.2826L36.0616 51.5432C36.2705 51.2859 36.5263 51.0218 36.8195 50.7584L35.4831 49.2705ZM35.538 49.9453L14.9657 44.5724L14.4603 46.5075L35.0326 51.8804L35.538 49.9453ZM14.4201 46.4961L34.4424 52.6302L35.0282 50.7179L15.0059 44.5838L14.4201 46.4961ZM33.8953 51.1315C33.8249 51.2404 33.7212 51.3967 33.6369 51.5417L35.3658 52.5471C35.4193 52.4552 35.4826 52.3601 35.5753 52.2166L33.8953 51.1315ZM34.7475 51.0752L8.24339 44.3451L7.75116 46.2836L34.2552 53.0137L34.7475 51.0752ZM7.71977 46.2751L33.802 53.8091L34.3571 51.8876L8.27479 44.3536L7.71977 46.2751ZM33.1774 52.4169L33.1515 52.4711L34.9558 53.3339L34.9817 53.2798L33.1774 52.4169ZM34.3034 51.9342L4.82548 44.3309L4.32597 46.2675L33.8039 53.8708L34.3034 51.9342ZM4.70267 44.3073C4.76747 44.3156 4.80922 44.3278 4.74103 44.3116C4.71047 44.3043 4.6625 44.2923 4.60057 44.2752C4.47623 44.2409 4.29975 44.1873 4.09741 44.1118C3.68006 43.956 3.21083 43.7284 2.85297 43.4278L1.56664 44.9592C2.17071 45.4666 2.87671 45.7909 3.39797 45.9855C3.66493 46.0851 3.8986 46.1563 4.06902 46.2033C4.15447 46.2268 4.22503 46.2446 4.27712 46.257C4.29158 46.2605 4.38011 46.2823 4.44878 46.2911L4.70267 44.3073ZM2.85297 43.4278C2.51339 43.1426 2.38334 42.8894 2.3419 42.666C2.29824 42.4306 2.32814 42.0921 2.55665 41.6015L0.743658 40.7571C0.399134 41.4968 0.233628 42.2662 0.375439 43.0307C0.519468 43.8073 0.955751 44.4461 1.56664 44.9592L2.85297 43.4278ZM2.55675 41.6013C3.02035 40.6053 4.0962 40.2743 5.48559 40.3408C6.14365 40.3723 6.7759 40.4933 7.25533 40.6118C7.73309 40.7298 8.03564 40.8394 8.02654 40.836L8.7157 38.9585C8.64264 38.9317 7.21836 38.4214 5.58119 38.3431C3.99744 38.2673 1.75164 38.5916 0.743558 40.7573L2.55675 41.6013ZM8.08488 40.8554L37.8219 49.739L38.3944 47.8227L8.65736 38.9391L8.08488 40.8554ZM37.7436 47.8497C37.2614 48.0385 36.846 48.2771 36.4807 48.512L37.5621 50.1944C37.8673 49.9983 38.1595 49.8347 38.4727 49.712L37.7436 47.8497ZM37.2772 48.3864L17.9573 43.2745L17.4457 45.208L36.7656 50.3199L37.2772 48.3864ZM17.4029 45.1956L35.8527 50.9688L36.45 49.0601L18.0002 43.2869L17.4029 45.1956Z" fill="#6668AA" mask="url(#path-1-inside-1_101_407)"/>
</svg>
